<svg width="18" height="18" viewBox="0 0 18 18" fill="none" xmlns="http://www.w3.org/2000/svg">
<path d="M9.00002 17.3333C7.83335 17.3333 6.74308 17.1145 5.72919 16.677C4.7153 16.2395 3.83335 15.6458 3.08335 14.8958C2.33335 14.1458 1.74308 13.2604 1.31252 12.2395C0.881965 11.2187 0.666687 10.125 0.666687 8.95829C0.666687 7.79163 0.881965 6.70482 1.31252 5.69788C1.74308 4.69093 2.33335 3.81246 3.08335 3.06246C3.83335 2.31246 4.7153 1.72565 5.72919 1.30204C6.74308 0.878431 7.83335 0.666626 9.00002 0.666626C10.1667 0.666626 11.257 0.878431 12.2709 1.30204C13.2847 1.72565 14.1667 2.31246 14.9167 3.06246C15.6667 3.81246 16.257 4.69093 16.6875 5.69788C17.1181 6.70482 17.3334 7.79163 17.3334 8.95829C17.3334 10.125 17.1181 11.2187 16.6875 12.2395C16.257 13.2604 15.6667 14.1458 14.9167 14.8958C14.1667 15.6458 13.2847 16.2395 12.2709 16.677C11.257 17.1145 10.1667 17.3333 9.00002 17.3333ZM9.00002 16.125C9.48613 15.625 9.89238 15.052 10.2188 14.4062C10.5452 13.7604 10.8125 12.993 11.0209 12.1041H7.00002C7.19446 12.9375 7.45488 13.6875 7.78127 14.3541C8.10766 15.0208 8.51391 15.6111 9.00002 16.125ZM7.22919 15.875C6.88196 15.3472 6.58335 14.7777 6.33335 14.1666C6.08335 13.5555 5.87502 12.868 5.70835 12.1041H2.58335C3.11113 13.0902 3.72224 13.8645 4.41669 14.427C5.11113 14.9895 6.04863 15.4722 7.22919 15.875ZM10.7917 15.8541C11.7917 15.5347 12.691 15.0555 13.4896 14.4166C14.2882 13.7777 14.9306 13.0069 15.4167 12.1041H12.3125C12.132 12.8541 11.9202 13.5347 11.6771 14.1458C11.434 14.7569 11.1389 15.3263 10.7917 15.8541ZM2.16669 10.8541H5.47919C5.43752 10.4791 5.41321 10.1423 5.40627 9.84371C5.39933 9.5451 5.39585 9.24996 5.39585 8.95829C5.39585 8.61107 5.4028 8.30204 5.41669 8.03121C5.43058 7.76038 5.45835 7.45829 5.50002 7.12496H2.16669C2.06946 7.45829 2.00349 7.7569 1.96877 8.02079C1.93405 8.28468 1.91669 8.59718 1.91669 8.95829C1.91669 9.3194 1.93405 9.64232 1.96877 9.92704C2.00349 10.2118 2.06946 10.5208 2.16669 10.8541ZM6.77085 10.8541H11.25C11.3056 10.4236 11.3403 10.0729 11.3542 9.80204C11.3681 9.53121 11.375 9.24996 11.375 8.95829C11.375 8.68051 11.3681 8.41315 11.3542 8.15621C11.3403 7.89926 11.3056 7.55551 11.25 7.12496H6.77085C6.7153 7.55551 6.68058 7.89926 6.66669 8.15621C6.6528 8.41315 6.64585 8.68051 6.64585 8.95829C6.64585 9.24996 6.6528 9.53121 6.66669 9.80204C6.68058 10.0729 6.7153 10.4236 6.77085 10.8541ZM12.5 10.8541H15.8334C15.9306 10.5208 15.9965 10.2118 16.0313 9.92704C16.066 9.64232 16.0834 9.3194 16.0834 8.95829C16.0834 8.59718 16.066 8.28468 16.0313 8.02079C15.9965 7.7569 15.9306 7.45829 15.8334 7.12496H12.5209C12.5625 7.61107 12.5903 7.9826 12.6042 8.23954C12.6181 8.49649 12.625 8.73607 12.625 8.95829C12.625 9.26385 12.6146 9.55204 12.5938 9.82288C12.5729 10.0937 12.5417 10.4375 12.5 10.8541ZM12.2917 5.87496H15.4167C14.9584 4.91663 14.3299 4.11801 13.5313 3.47913C12.7327 2.84024 11.8125 2.38885 10.7709 2.12496C11.1181 2.63885 11.4132 3.1944 11.6563 3.79163C11.8993 4.38885 12.1111 5.08329 12.2917 5.87496ZM7.00002 5.87496H11.0417C10.8889 5.13885 10.632 4.42704 10.2709 3.73954C9.90974 3.05204 9.48613 2.4444 9.00002 1.91663C8.55558 2.29163 8.18058 2.78468 7.87502 3.39579C7.56946 4.0069 7.2778 4.83329 7.00002 5.87496ZM2.58335 5.87496H5.72919C5.88196 5.12496 6.07641 4.45482 6.31252 3.86454C6.54863 3.27426 6.84724 2.70135 7.20835 2.14579C6.16669 2.40968 5.25696 2.85413 4.47919 3.47913C3.70141 4.10413 3.06946 4.90274 2.58335 5.87496Z" fill="url(#paint0_linear_7_42)"/>
<defs>
<linearGradient id="paint0_linear_7_42" x1="9.00002" y1="0.666626" x2="9.00002" y2="17.3333" gradientUnits="userSpaceOnUse">
<stop stop-color="#9E59D5"/>
<stop offset="1" stop-color="#7927B9"/>
</linearGradient>
</defs>
</svg>
