<svg width="20" height="17" viewBox="0 0 20 17" fill="none" xmlns="http://www.w3.org/2000/svg">
<path d="M9.99998 16.4375C9.90927 16.4375 9.82062 16.427 9.73402 16.4062C9.64744 16.3854 9.56942 16.3472 9.49998 16.2916C8.88887 15.8888 8.23911 15.5729 7.55071 15.3437C6.86231 15.1145 6.15095 15 5.41665 15C4.83331 15 4.2604 15.0763 3.6979 15.2291C3.1354 15.3819 2.5972 15.5972 2.08331 15.875C1.79165 16.0277 1.5104 16.0208 1.23956 15.8541C0.96873 15.6875 0.833313 15.4444 0.833313 15.125V5.08329C0.833313 4.93051 0.871507 4.78467 0.947896 4.64579C1.02429 4.5069 1.13887 4.40273 1.29165 4.33329C1.93054 3.99995 2.5972 3.74995 3.29165 3.58329C3.98609 3.41662 4.69442 3.33329 5.41665 3.33329C6.2222 3.33329 7.0104 3.43745 7.78123 3.64579C8.55206 3.85412 9.29165 4.16662 9.99998 4.58329V15.125C10.7083 14.6666 11.4514 14.3229 12.2291 14.0937C13.0069 13.8645 13.7916 13.75 14.5833 13.75C15.0833 13.75 15.6285 13.7986 16.2187 13.8958C16.809 13.993 17.375 14.1944 17.9166 14.5V3.97912C18.054 4.0312 18.189 4.08589 18.3217 4.14318C18.4544 4.20047 18.5833 4.26384 18.7083 4.33329C18.8472 4.41662 18.9583 4.52549 19.0416 4.65989C19.125 4.79431 19.1666 4.93544 19.1666 5.08329V15.125C19.1666 15.4444 19.0312 15.6875 18.7604 15.8541C18.4896 16.0208 18.2083 16.0277 17.9166 15.875C17.4028 15.5972 16.8646 15.3819 16.3021 15.2291C15.7396 15.0763 15.1666 15 14.5833 15C13.849 15 13.1377 15.1145 12.4493 15.3437C11.7608 15.5729 11.1111 15.8888 10.5 16.2916C10.4305 16.3472 10.3525 16.3854 10.2659 16.4062C10.1793 16.427 10.0907 16.4375 9.99998 16.4375ZM11.7708 12.7291C11.6597 12.8125 11.5451 12.8298 11.4271 12.7812C11.309 12.7326 11.25 12.6388 11.25 12.5V5.95664C11.25 5.92996 11.2778 5.86106 11.3333 5.74995L16.125 0.958285C16.2222 0.861063 16.3368 0.837049 16.4687 0.886243C16.6007 0.935424 16.6666 1.02888 16.6666 1.16662V8.33329C16.6666 8.36106 16.6319 8.43745 16.5625 8.56245L11.7708 12.7291ZM8.74998 14.5V5.35412C8.27776 5.09023 7.72915 4.89579 7.10415 4.77079C6.47915 4.64579 5.91665 4.58329 5.41665 4.58329C4.76387 4.58329 4.15623 4.65273 3.59373 4.79162C3.03123 4.93051 2.52776 5.10782 2.08331 5.32356V14.5C2.56942 14.2638 3.09373 14.0798 3.65623 13.9479C4.21873 13.8159 4.80901 13.75 5.42706 13.75C6.04512 13.75 6.63192 13.8159 7.18748 13.9479C7.74304 14.0798 8.26387 14.2638 8.74998 14.5Z" fill="url(#paint0_linear_7_41)"/>
<defs>
<linearGradient id="paint0_linear_7_41" x1="9.99998" y1="0.86145" x2="9.99998" y2="16.4375" gradientUnits="userSpaceOnUse">
<stop stop-color="#9E59D5"/>
<stop offset="1" stop-color="#7927B9"/>
</linearGradient>
</defs>
</svg>
