<svg width="87" height="32" viewBox="0 0 87 32" fill="none" xmlns="http://www.w3.org/2000/svg">
<path d="M7.15998 3.28002V25.8H17.96L17.28 31H0.599976V3.28002H7.15998Z" fill="#141414"/>
<path d="M29.1722 9.08002C32.4255 9.08002 34.9722 10.08 36.8122 12.08C38.6522 14.0533 39.5722 16.8267 39.5722 20.4C39.5722 22.6667 39.1455 24.6534 38.2922 26.36C37.4655 28.04 36.2655 29.3467 34.6922 30.28C33.1455 31.2134 31.3055 31.68 29.1722 31.68C25.9455 31.68 23.3988 30.6933 21.5322 28.72C19.6922 26.72 18.7722 23.9334 18.7722 20.36C18.7722 18.0934 19.1855 16.12 20.0122 14.44C20.8655 12.7333 22.0655 11.4133 23.6122 10.48C25.1855 9.54668 27.0388 9.08002 29.1722 9.08002ZM29.1722 13.72C27.8922 13.72 26.9322 14.2667 26.2922 15.36C25.6522 16.4267 25.3322 18.0934 25.3322 20.36C25.3322 22.68 25.6388 24.3733 26.2522 25.44C26.8922 26.5067 27.8655 27.04 29.1722 27.04C30.4522 27.04 31.4122 26.5067 32.0522 25.44C32.6922 24.3467 33.0122 22.6667 33.0122 20.4C33.0122 18.08 32.6922 16.3867 32.0522 15.32C31.4388 14.2534 30.4788 13.72 29.1722 13.72Z" fill="#141414"/>
<path d="M55.3715 9.08002C57.9049 9.08002 59.8515 10.08 61.2115 12.08C62.5715 14.0533 63.2515 16.8267 63.2515 20.4C63.2515 22.5867 62.9049 24.5333 62.2115 26.24C61.5449 27.9467 60.5715 29.28 59.2915 30.24C58.0382 31.2 56.5449 31.68 54.8115 31.68C53.6649 31.68 52.6115 31.44 51.6515 30.96C50.7182 30.48 49.9182 29.8133 49.2515 28.96L48.9315 31H43.3315V1.32002L49.6515 0.640015V11.92C50.2915 11.04 51.1049 10.3467 52.0915 9.84002C53.1049 9.33335 54.1982 9.08002 55.3715 9.08002ZM52.9715 27.08C55.4515 27.08 56.6915 24.8534 56.6915 20.4C56.6915 17.8667 56.3982 16.12 55.8115 15.16C55.2249 14.2 54.3715 13.72 53.2515 13.72C51.8382 13.72 50.6382 14.5467 49.6515 16.2V25.04C50.0515 25.68 50.5315 26.1867 51.0915 26.56C51.6782 26.9067 52.3049 27.08 52.9715 27.08Z" fill="#141414"/>
<path d="M76.3987 9.08002C79.6521 9.08002 82.1987 10.08 84.0387 12.08C85.8787 14.0533 86.7987 16.8267 86.7987 20.4C86.7987 22.6667 86.3721 24.6534 85.5187 26.36C84.6921 28.04 83.4921 29.3467 81.9187 30.28C80.3721 31.2134 78.5321 31.68 76.3987 31.68C73.1721 31.68 70.6254 30.6933 68.7587 28.72C66.9187 26.72 65.9987 23.9334 65.9987 20.36C65.9987 18.0934 66.4121 16.12 67.2387 14.44C68.0921 12.7333 69.2921 11.4133 70.8387 10.48C72.4121 9.54668 74.2654 9.08002 76.3987 9.08002ZM76.3987 13.72C75.1187 13.72 74.1587 14.2667 73.5187 15.36C72.8787 16.4267 72.5587 18.0934 72.5587 20.36C72.5587 22.68 72.8654 24.3733 73.4787 25.44C74.1187 26.5067 75.0921 27.04 76.3987 27.04C77.6787 27.04 78.6387 26.5067 79.2787 25.44C79.9187 24.3467 80.2387 22.6667 80.2387 20.4C80.2387 18.08 79.9187 16.3867 79.2787 15.32C78.6654 14.2534 77.7054 13.72 76.3987 13.72Z" fill="#141414"/>
</svg>
